<?xml version="1.0" standalone="no"?>
<!DOCTYPE svg PUBLIC "-//W3C//DTD SVG 20010904//EN"
 "http://www.w3.org/TR/2001/REC-SVG-20010904/DTD/svg10.dtd">
<svg version="1.0" xmlns="http://www.w3.org/2000/svg"
 width="500.000000pt" height="500.000000pt" viewBox="0 0 500.000000 500.000000"
 preserveAspectRatio="xMidYMid meet">
<metadata>
Created by potrace 1.14, written by Peter Selinger 2001-2017
</metadata>
<g transform="translate(0.000000,500.000000) scale(0.100000,-0.100000)"
fill="#000000" stroke="none">
<path d="M0 2500 l0 -2500 2500 0 2500 0 0 2500 0 2500 -2500 0 -2500 0 0
-2500z m2042 2038 c17 -31 13 -289 -6 -372 -23 -98 -68 -186 -134 -261 -34
-39 -62 -73 -62 -77 0 -4 41 19 91 51 64 42 101 74 126 110 60 85 195 160 288
160 48 0 83 -7 239 -48 65 -17 149 -35 185 -39 88 -9 92 -29 19 -98 -112 -106
-196 -134 -400 -136 -144 -1 -200 8 -285 49 -31 14 -66 26 -78 26 -13 0 -90
-44 -170 -97 -145 -96 -147 -97 -129 -117 10 -12 56 -39 101 -61 103 -50 124
-73 121 -142 l-1 -51 -4 45 c-5 56 -23 79 -23 30 0 -40 -35 -119 -80 -185 -28
-41 -30 -57 -4 -37 5 4 -2 -3 -16 -15 -30 -28 -42 -28 -62 -5 -26 29 -29 56
-13 131 8 40 15 86 15 102 l0 29 -39 -24 c-24 -15 -85 -34 -162 -51 -68 -14
-135 -32 -149 -38 -52 -26 -243 -347 -206 -347 3 0 38 7 78 15 88 19 171 45
302 97 54 21 105 37 112 34 26 -10 14 -60 -33 -134 -99 -159 -185 -238 -348
-320 -45 -22 -101 -45 -125 -52 -75 -20 -187 -76 -200 -100 -17 -31 -130 -378
-130 -399 0 -9 -5 -23 -11 -31 -7 -11 -8 -1 -4 35 11 87 36 177 81 291 l44
111 -21 48 c-38 86 -8 208 72 300 33 37 88 76 60 42 -19 -24 -1 -21 29 4 21
17 22 20 5 15 -20 -6 -20 -6 -1 9 11 8 25 15 32 15 16 0 25 14 34 56 10 42 3
47 -70 55 l-55 6 55 3 55 3 -65 7 -65 7 63 1 c69 2 77 13 32 41 -16 10 -27 20
-24 23 3 3 -7 15 -22 27 -34 27 -21 27 17 0 41 -29 36 -8 -10 38 -27 27 -79
57 -179 101 -92 42 -157 78 -192 108 -29 25 -58 43 -64 41 -6 -2 -12 -33 -14
-72 -2 -54 3 -83 24 -142 47 -129 111 -180 231 -184 36 -2 35 -2 -12 -9 -82
-12 -169 37 -220 125 -27 46 -49 176 -43 256 4 60 28 62 93 8 56 -46 118 -80
215 -116 140 -52 221 -113 248 -186 l20 -52 12 44 c13 51 30 194 30 267 0 61
-17 86 -96 145 -29 22 -73 65 -96 97 -23 31 -64 80 -90 109 -70 75 -90 128
-96 245 -4 92 13 208 37 246 16 26 60 -6 113 -85 29 -43 77 -103 107 -135 49
-53 55 -56 68 -40 12 15 13 14 8 -13 -5 -29 -5 -29 6 -5 6 14 22 49 35 78 13
28 20 52 15 52 -5 0 -14 -14 -21 -30 -7 -17 -17 -33 -22 -36 -5 -3 2 17 16 45
15 28 61 88 104 133 42 46 94 107 115 136 21 28 45 52 53 52 26 0 36 -50 30
-143 -12 -180 -67 -335 -149 -424 -58 -63 -73 -94 -81 -174 -3 -37 -14 -89
-22 -115 -11 -32 -19 -107 -24 -214 -4 -91 -10 -173 -15 -182 -16 -38 11 -15
34 28 14 25 49 73 78 106 39 43 73 99 119 194 54 112 70 138 103 159 38 25 39
26 79 10 l41 -17 54 35 c71 46 74 65 30 209 -18 61 -33 128 -33 149 0 40 70
186 133 279 35 51 136 160 148 160 5 0 14 -10 21 -22z m1246 -754 c234 -150
434 -369 552 -604 50 -100 105 -258 131 -378 32 -153 37 -394 10 -551 -158
-923 -1082 -1481 -1971 -1190 -308 101 -602 325 -778 593 -39 60 -69 113 -66
118 8 12 7 13 89 -111 81 -124 239 -287 362 -374 427 -303 987 -363 1464 -158
453 196 776 600 876 1096 27 135 24 425 -5 561 -90 417 -328 762 -674 977 -64
40 -81 57 -58 57 6 0 37 -16 68 -36z m-1359 -376 c-21 -40 -62 -99 -66 -95 -3
4 68 117 74 117 2 0 -2 -10 -8 -22z m-993 -49 c19 -22 19 -22 -3 -10 -13 6
-23 16 -23 21 0 15 5 12 26 -11z m72 -186 c-10 -2 -28 -2 -40 0 -13 2 -5 4 17
4 22 1 32 -1 23 -4z m3128 -299 c0 -5 4 -17 8 -26 16 -36 -15 -63 -98 -84 -50
-12 -25 17 29 35 50 16 70 43 41 54 -9 4 -34 0 -57 -8 -48 -17 -59 -18 -59 -6
0 10 109 51 125 47 6 -2 10 -7 11 -12z m38 -160 c39 -38 1 -94 -64 -94 -71 0
-91 74 -27 100 35 14 74 11 91 -6z m8 -164 c37 -7 72 -18 79 -26 18 -21 4 -28
-21 -11 -20 14 -28 13 -91 -13 -40 -17 -71 -25 -75 -19 -5 9 53 39 76 39 6 0
8 5 5 10 -3 6 -24 10 -46 10 -29 0 -39 4 -39 16 0 12 6 15 23 11 12 -3 52 -11
89 -17z m-79 -210 c4 -17 14 -20 61 -20 31 0 56 -4 56 -10 0 -6 -29 -10 -68
-10 l-69 0 -1 30 c-1 34 13 40 21 10z m89 -117 c44 -39 5 -100 -58 -90 -20 3
-42 11 -50 18 -17 14 -18 61 -2 77 18 18 88 15 110 -5z m-179 -123 c5 -20 37
-29 37 -10 0 6 5 10 10 10 6 0 10 -6 10 -14 0 -8 22 -18 61 -25 43 -9 58 -16
51 -23 -7 -7 -26 -7 -62 2 -42 10 -54 10 -60 0 -6 -10 -10 -9 -16 1 -5 8 -18
19 -29 25 -11 6 -21 21 -23 33 -4 27 14 28 21 1z m66 -205 c2 -2 -2 -19 -8
-36 -8 -25 -8 -34 0 -40 20 -12 39 1 39 26 0 13 5 27 10 30 17 11 11 -52 -7
-70 -19 -19 -62 -15 -100 10 -46 31 -17 103 36 90 14 -4 28 -8 30 -10z m-9
-208 c0 -10 -117 1 -139 13 -24 13 3 18 49 10 25 -5 46 -7 48 -6 1 2 -13 15
-33 30 -19 15 -35 34 -35 42 0 10 20 -2 55 -32 30 -26 55 -52 55 -57z m-96
-68 c28 -22 35 -66 14 -87 -22 -22 -68 -14 -99 17 -33 33 -36 52 -13 75 22 22
66 20 98 -5z m-119 -115 c69 -48 80 -60 68 -67 -10 -6 -156 99 -162 115 -6 18
24 3 94 -48z m-168 -134 c8 11 21 20 29 20 20 0 105 -80 98 -92 -3 -5 -26 10
-50 32 -36 33 -48 39 -59 30 -18 -15 -9 -33 34 -74 17 -16 28 -33 25 -38 -3
-5 -39 21 -80 58 -40 36 -71 70 -68 75 3 5 17 0 31 -11 l26 -20 14 20z m-92
-70 c3 -5 13 -6 22 -3 12 5 15 2 10 -10 -8 -22 48 -88 69 -80 8 3 14 0 14 -6
0 -29 -34 -22 -73 16 -23 23 -46 39 -52 37 -5 -2 -10 10 -11 26 -1 29 9 39 21
20z m-81 -51 c-3 -5 -10 -7 -15 -3 -5 3 -7 10 -3 15 3 5 10 7 15 3 5 -3 7 -10
3 -15z m66 -70 c39 -49 48 -69 32 -69 -12 0 -92 107 -85 114 10 9 10 9 53 -45z
m-50 -120 c0 -18 -25 -8 -56 22 l-33 32 15 -48 c8 -27 11 -52 6 -57 -4 -4 -30
14 -57 42 -55 55 -55 83 0 30 40 -38 40 -38 21 18 -8 22 -12 43 -9 46 3 3 23
-9 45 -26 l39 -31 -16 39 c-8 21 -13 45 -9 53 4 11 14 -6 30 -48 13 -35 24
-67 24 -72z m-414 -96 c32 -107 32 -107 17 -108 -6 0 -15 -3 -19 -7 -4 -5 -18
-8 -30 -8 -43 0 -80 93 -49 124 9 9 23 16 32 16 12 0 14 7 10 29 -5 25 -1 41
9 41 2 0 15 -39 30 -87z m136 60 c31 -37 30 -43 -7 -59 -20 -8 -35 -20 -32
-27 5 -15 57 -22 57 -8 0 6 5 11 10 11 18 0 10 -19 -14 -35 -31 -20 -59 -8
-81 35 -21 40 -19 66 7 84 29 20 41 20 60 -1z m-303 -83 c11 -5 22 -26 26 -47
3 -21 9 -49 12 -62 5 -19 3 -23 -10 -18 -9 3 -19 2 -22 -3 -4 -6 -17 -10 -30
-10 -45 0 -45 75 1 86 27 7 30 14 12 32 -9 9 -17 7 -35 -10 -19 -18 -23 -19
-23 -5 0 9 10 23 22 31 26 19 24 19 47 6z m-213 -31 c4 -8 9 -8 17 0 6 6 21
11 34 11 29 0 43 -32 43 -96 0 -64 -16 -54 -24 16 -6 51 -10 60 -26 60 -18 0
-20 -7 -20 -59 0 -78 -17 -87 -26 -14 -7 61 -20 79 -41 61 -9 -7 -11 -26 -7
-64 4 -34 3 -54 -3 -54 -14 0 -23 35 -23 94 0 38 3 47 15 43 8 -4 17 -2 20 3
8 13 32 13 41 -1z"/>
<path d="M1978 4503 c-49 -52 -156 -215 -174 -266 -9 -23 -16 -73 -15 -111 0
-77 29 -228 42 -220 5 3 15 26 23 52 11 34 15 40 16 22 1 -24 1 -24 12 -5 7
11 22 47 35 80 16 41 21 49 17 25 -7 -38 -42 -113 -82 -172 -14 -21 -23 -41
-20 -43 7 -8 145 175 158 210 32 82 61 379 44 443 -8 30 -14 28 -56 -15z m-31
-360 c-2 -16 -4 -3 -4 27 0 30 2 43 4 28 2 -16 2 -40 0 -55z m-100 -5 c-2 -13
-4 -5 -4 17 -1 22 1 32 4 23 2 -10 2 -28 0 -40z"/>
<path d="M1477 4464 c-9 -10 -31 -38 -49 -61 -18 -23 -57 -70 -87 -105 -55
-64 -116 -178 -126 -233 -4 -23 1 -37 24 -63 l29 -33 61 110 c34 61 64 111 67
111 2 0 -14 -33 -36 -72 -70 -124 -83 -157 -74 -190 5 -16 14 -30 19 -30 6 -1
39 44 74 100 36 56 66 100 69 98 2 -2 -12 -28 -31 -58 -55 -87 -63 -109 -24
-65 32 35 87 145 67 132 -14 -9 -13 -4 15 57 40 87 59 266 31 303 -13 18 -14
18 -29 -1z m-174 -336 c-17 -18 -36 -44 -43 -56 -6 -13 -14 -21 -17 -19 -12
13 59 107 81 107 5 0 -4 -15 -21 -32z"/>
<path d="M909 4303 c-7 -16 -12 -84 -12 -153 -1 -183 12 -213 158 -355 62 -60
127 -129 144 -152 18 -24 36 -43 40 -43 13 0 34 205 27 255 -10 75 -41 132
-117 213 -40 42 -94 110 -121 150 -80 118 -100 133 -119 85z m281 -397 c17
-33 30 -69 30 -80 -1 -12 -9 2 -19 29 -10 28 -30 68 -44 90 -55 83 -59 89 -28
55 18 -19 45 -62 61 -94z m39 -188 l-1 -73 -13 50 c-7 28 -15 59 -19 70 -5 13
-2 11 8 -5 l15 -25 1 28 c0 15 2 27 5 27 3 0 5 -33 4 -72z"/>
<path d="M877 4223 c-9 -8 -7 -160 2 -192 3 -13 6 26 6 88 0 61 0 111 -1 111
0 0 -4 -3 -7 -7z"/>
<path d="M1759 4163 c-12 -32 -6 -98 15 -145 14 -33 14 -32 8 22 -4 30 -7 76
-7 103 0 26 -1 47 -3 47 -1 0 -7 -12 -13 -27z"/>
<path d="M2252 4121 c-29 -10 -59 -24 -65 -30 -9 -10 -5 -10 18 -1 17 7 63 18
104 26 41 8 77 17 80 19 12 13 -90 2 -137 -14z"/>
<path d="M2277 4097 c-22 -7 -36 -14 -33 -18 3 -3 -9 -13 -27 -23 l-32 -17 24
20 c35 31 11 25 -43 -10 -50 -33 -123 -115 -112 -126 3 -4 17 3 29 16 13 12
30 20 38 18 8 -2 11 -2 6 0 -9 6 1 23 14 23 6 0 7 -4 4 -10 -3 -6 4 -10 17
-11 14 0 5 -6 -24 -15 -27 -8 -48 -18 -48 -23 0 -5 51 -24 113 -42 116 -35
167 -39 332 -27 69 5 141 30 180 63 23 19 19 18 -57 -18 -32 -14 -70 -29 -85
-32 -20 -4 -17 -1 10 9 71 28 179 90 209 120 28 28 29 30 12 43 -10 7 -36 13
-58 13 -23 0 -99 14 -170 30 -138 32 -233 37 -299 17z m127 -75 c2 -4 -13 -6
-35 -4 -21 2 -39 6 -39 8 0 7 69 4 74 -4z m-105 -6 c-2 -2 -24 -6 -49 -9 -30
-4 -38 -3 -25 3 19 8 83 14 74 6z m-109 -26 c-8 -5 -19 -10 -25 -10 -5 0 -3 5
5 10 8 5 20 10 25 10 6 0 3 -5 -5 -10z m83 -17 c-7 -2 -19 -2 -25 0 -7 3 -2 5
12 5 14 0 19 -2 13 -5z"/>
<path d="M2135 4054 l-30 -26 33 22 c17 12 32 23 32 26 0 7 -4 5 -35 -22z"/>
<path d="M1266 3915 c4 -16 10 -59 14 -95 l7 -65 1 65 c1 39 -5 77 -14 95
l-14 30 6 -30z"/>
<path d="M2149 3869 c38 -15 101 -28 96 -19 -5 8 -86 30 -107 29 -7 0 -2 -5
11 -10z"/>
<path d="M1050 3770 c0 -19 107 -127 116 -117 4 3 -21 35 -55 69 -34 36 -61
56 -61 48z"/>
<path d="M1565 3708 c-29 -28 -149 -247 -140 -256 2 -2 41 2 87 9 88 13 243
70 252 94 8 21 -44 117 -60 111 -8 -3 -11 0 -8 8 6 17 -51 66 -77 66 -11 0
-35 -15 -54 -32z m46 -34 c-12 -9 -36 -34 -52 -57 -33 -46 -39 -41 -8 9 20 33
70 76 78 68 3 -2 -5 -12 -18 -20z m49 -32 c-44 -30 -90 -74 -90 -86 -1 -13
-88 -81 -95 -74 -9 9 188 179 205 177 3 0 -6 -8 -20 -17z"/>
<path d="M1780 3604 c12 -30 12 -169 0 -239 -7 -42 -8 -36 -5 35 l4 85 -19
-79 c-12 -51 -15 -86 -10 -100 5 -12 9 -17 9 -12 1 6 7 2 14 -8 12 -17 16 -15
50 31 79 108 110 220 70 255 -10 8 -26 18 -35 21 -15 5 -16 2 -8 -19 6 -14 10
-40 9 -57 -1 -36 -4 -29 -14 27 -3 21 -17 49 -30 62 -32 32 -47 31 -35 -2z
m67 -156 c-3 -8 -6 -5 -6 6 -1 11 2 17 5 13 3 -3 4 -12 1 -19z"/>
<path d="M1142 3275 c28 -51 28 -51 28 -32 0 9 -11 29 -25 44 l-26 28 23 -40z"/>
<path d="M1612 3170 c-23 -11 -133 -47 -244 -80 -236 -72 -262 -84 -317 -146
-41 -47 -56 -84 -72 -179 -8 -49 -8 -48 -4 12 5 74 23 120 66 174 17 21 26 39
21 39 -20 0 -85 -102 -103 -161 -23 -73 -24 -118 -4 -145 14 -18 14 -18 15 6
1 20 3 21 8 7 6 -13 12 -4 25 34 13 36 37 69 82 114 62 62 155 125 185 125 8
0 -9 -11 -38 -25 -64 -30 -176 -134 -204 -190 l-21 -40 54 56 c63 65 112 95
231 143 48 19 110 47 137 61 28 14 51 23 51 20 0 -4 -48 -29 -107 -57 -60 -27
-131 -61 -159 -74 -72 -34 -138 -89 -190 -156 -46 -61 -56 -82 -26 -56 30 27
113 64 252 112 74 26 158 62 186 81 68 44 237 256 258 323 6 18 4 22 -16 21
-13 0 -42 -9 -66 -19z m-422 -184 c0 -2 -21 -16 -47 -31 -27 -15 -61 -39 -78
-54 l-30 -26 30 33 c17 19 50 44 75 57 50 27 50 27 50 21z"/>
<path d="M1192 2733 c-40 -14 -71 -27 -69 -29 4 -4 147 43 155 51 9 9 -12 4
-86 -22z"/>
<path d="M4094 2700 c-54 -21 -28 -67 31 -56 40 8 54 28 35 51 -14 17 -34 18
-66 5z"/>
<path d="M4094 2205 c-12 -30 4 -45 46 -45 44 0 61 19 40 45 -16 20 -79 20
-86 0z"/>
<path d="M4012 1858 c4 -31 23 -33 36 -3 11 23 10 25 -14 25 -20 0 -25 -4 -22
-22z"/>
<path d="M3888 1608 c-8 -21 2 -38 34 -54 35 -18 58 -12 58 15 0 37 -81 71
-92 39z"/>
<path d="M3057 954 c-22 -22 2 -94 32 -94 26 0 30 18 16 60 -11 33 -33 49 -48
34z"/>
<path d="M3200 1005 c-19 -23 1 -40 30 -25 17 9 19 14 9 26 -15 18 -23 18 -39
-1z"/>
<path d="M2913 854 c-3 -8 -1 -20 5 -26 16 -16 42 -2 42 22 0 24 -38 28 -47 4z"/>
</g>
</svg>
